<?xml version="1.0" encoding="UTF-8"?>
<svg version="1.1" xmlns="http://www.w3.org/2000/svg" width="120" height="140">
<path d="M0 0 C39.27 0 78.54 0 119 0 C119 9.9 119 19.8 119 30 C105.1875 30.3125 105.1875 30.3125 100.84057617 30.38793945 C99.71111572 30.42105225 98.58165527 30.45416504 97.41796875 30.48828125 C96.26063232 30.51446533 95.1032959 30.54064941 93.91088867 30.56762695 C90.72610218 31.04068381 89.94059257 31.53840135 88 34 C86.66824992 34.88871243 85.31265369 35.74254855 83.9375 36.5625 C81.62790849 37.94309381 79.91494508 39.08505492 78 41 C77.56903756 43.25541758 77.56903756 43.25541758 77.4375 45.875 C77.37433594 46.73867188 77.31117187 47.60234375 77.24609375 48.4921875 C77.12427734 50.22855469 77.12427734 50.22855469 77 52 C76.88471703 53.26629997 76.88471703 53.26629997 76.7671051 54.55818176 C76.1315844 61.59517979 75.81580929 68.58127154 75.71875 75.64453125 C75.70034058 76.69855637 75.68193115 77.75258148 75.66296387 78.83854675 C75.58520948 83.29095553 75.51650684 87.74348931 75.44775391 92.19604492 C75.39583337 95.47061119 75.33870214 98.74505809 75.28125 102.01953125 C75.26767456 103.01757278 75.25409912 104.01561432 75.2401123 105.04389954 C75.15030675 110.1029546 75.047791 115.03857484 74 120 C72.66666667 120.66666667 71.33333333 121.33333333 70 122 C70 124.97 70 127.94 70 131 C67.69 131 65.38 131 63 131 C63 127.37 63 123.74 63 120 C61.02 120 59.04 120 57 120 C57.495 121.3303125 57.495 121.3303125 58 122.6875 C58.92135807 125.73949862 59.34949702 127.8545268 59 131 C57 133 57 133 54.5 133.1875 C52 133 52 133 50 132 C50 132.33 50 132.66 50 133 C47.20807795 133.05380578 44.4171859 133.09357669 41.625 133.125 C40.8309375 133.14175781 40.036875 133.15851563 39.21875 133.17578125 C37.14507985 133.19335473 35.07116759 133.10335168 33 133 C32.01 132.01 32.01 132.01 31 131 C31 130.67 31 130.34 31 130 C29.68 130.33 28.36 130.66 27 131 C27.495 131.99 27.495 131.99 28 133 C18.13124027 133.8984165 8.87931171 133.98945341 -1 133 C-1 112.5 -1 112.5 -0.90820312 106.12011719 C-0.89844955 105.43678314 -0.88869598 104.7534491 -0.87864685 104.04940796 C-0.84645218 101.79855966 -0.81385318 99.54771741 -0.78125 97.296875 C-0.75880482 95.733175 -0.73638491 94.16947464 -0.71398926 92.60577393 C-0.65505812 88.49584595 -0.5957838 84.38592299 -0.53643799 80.27600098 C-0.47590762 76.07983696 -0.41570185 71.88366829 -0.35546875 67.6875 C-0.23729684 59.45832874 -0.11876237 51.22916276 0 43 C1.22976562 42.80083984 1.22976562 42.80083984 2.484375 42.59765625 C3.56203125 42.42105469 4.6396875 42.24445312 5.75 42.0625 C6.81734375 41.88847656 7.8846875 41.71445312 8.984375 41.53515625 C11.87176148 41.06395502 11.87176148 41.06395502 14.15625 40.4375 C17.08813597 39.74179825 20.00294312 39.94236429 23 40 C23.33 40.99 23.66 41.98 24 43 C25.485 43.495 25.485 43.495 27 44 C30.55244202 49.05539827 31.12589666 53.05884185 31.11352539 59.14550781 C31.11344986 60.38649231 31.11337433 61.62747681 31.11329651 62.90606689 C31.10819031 64.25508667 31.10297432 65.60410604 31.09765625 66.953125 C31.09579024 68.33746286 31.0943672 69.72180138 31.09336853 71.10614014 C31.08955773 74.74261308 31.07973975 78.37904582 31.06866455 82.01550293 C31.0584195 85.72907976 31.05386429 89.4426631 31.04882812 93.15625 C31.03811616 100.43751829 31.02105704 107.7187535 31 115 C34.1964086 116.06546953 36.65747276 116.07427838 40 116 C40.33 117.32 40.66 118.64 41 120 C42.98 120 44.96 120 47 120 C47.495 118.02 47.495 118.02 48 116 C50.33333333 116 52.66666667 116 55 116 C53.71802734 115.92652344 53.71802734 115.92652344 52.41015625 115.8515625 C51.30542969 115.77679688 50.20070312 115.70203125 49.0625 115.625 C47.96035156 115.55539063 46.85820313 115.48578125 45.72265625 115.4140625 C44.82417969 115.27742188 43.92570312 115.14078125 43 115 C41.58670593 112.17341185 41.89604646 109.83076837 41.91821289 106.67016602 C41.92127945 106.02120361 41.92434601 105.37224121 41.92750549 104.70361328 C41.93466425 103.29309932 41.94405618 101.88259535 41.95540047 100.47210884 C41.97275984 98.24059006 41.98308 96.00914258 41.99131775 93.77757263 C42.01579966 87.43229418 42.05136273 81.08711174 42.09594727 74.74194336 C42.12271422 70.86228508 42.13976775 66.98268247 42.15081596 63.10294914 C42.15702986 61.62334066 42.16704031 60.14374314 42.18089485 58.66418648 C42.20008928 56.59579516 42.20700398 54.52769683 42.21118164 52.45922852 C42.21863907 51.28167496 42.2260965 50.1041214 42.23377991 48.8908844 C42.21969736 45.80323236 42.21969736 45.80323236 40 43 C39.731875 42.195625 39.46375 41.39125 39.1875 40.5625 C37.68334419 37.3166901 35.91672713 36.03492591 33 34 C32.175 33.4225 31.35 32.845 30.5 32.25 C27.71473172 30.85736586 26.06116665 30.91944298 23 31 C22.01 30.34 21.02 29.68 20 29 C17.77868577 28.6349209 17.77868577 28.6349209 15.33203125 28.5859375 C14.43935547 28.54726563 13.54667969 28.50859375 12.62695312 28.46875 C11.69818359 28.4378125 10.76941406 28.406875 9.8125 28.375 C8.87212891 28.33632813 7.93175781 28.29765625 6.96289062 28.2578125 C4.6421229 28.16356813 2.32136252 28.07795975 0 28 C-4.17399356 19.65201288 -0.35870914 9.32643763 0 0 Z M74 50 C75 52 75 52 75 52 Z M73 55 C73 74.14 73 93.28 73 113 C73.33 113 73.66 113 74 113 C74 93.86 74 74.72 74 55 C73.67 55 73.34 55 73 55 Z M26 119 C27.65 119 29.3 119 31 119 C31.33 118.34 31.66 117.68 32 117 C29.53721199 117 28.14775881 117.85452863 26 119 Z M12 119 C12 121.97 12 124.94 12 128 C12.33 128 12.66 128 13 128 C13 125.03 13 122.06 13 119 C12.67 119 12.34 119 12 119 Z M14 120 C14 122.64 14 125.28 14 128 C14.66 127.67 15.32 127.34 16 127 C15.67 124.69 15.34 122.38 15 120 C14.67 120 14.34 120 14 120 Z M34 121 C35 124 35 124 35 124 Z M25 122 C25 122.66 25 123.32 25 124 C25.66 124 26.32 124 27 124 C27 123.34 27 122.68 27 122 C26.34 122 25.68 122 25 122 Z M50 122 C51 124 51 124 51 124 Z M20 125 C21 127 21 127 21 127 Z M26 125 C25.67 125.66 25.34 126.32 25 127 C26.32 126.34 27.64 125.68 29 125 C28.01 125 27.02 125 26 125 Z M27 127 C28 129 28 129 28 129 Z M4 128 C5.98 128.99 5.98 128.99 8 130 C8 129.34 8 128.68 8 128 C6.68 128 5.36 128 4 128 Z M42 128 C41.67 128.99 41.34 129.98 41 131 C41.99 131 42.98 131 44 131 C44 130.01 44 129.02 44 128 C43.34 128 42.68 128 42 128 Z M49 128 C53 129 53 129 53 129 Z M12 131 C13.485 131.99 13.485 131.99 15 133 C15 132.34 15 131.68 15 131 C14.01 131 13.02 131 12 131 Z " fill="#F26F2F" transform="translate(1,0)"/>
<path d="M0 0 C1.6097168 0.00966797 1.6097168 0.00966797 3.25195312 0.01953125 C4.9312793 0.04466797 4.9312793 0.04466797 6.64453125 0.0703125 C7.77568359 0.07933594 8.90683594 0.08835938 10.07226562 0.09765625 C12.86739953 0.12124388 15.6621097 0.1541595 18.45703125 0.1953125 C17.79703125 0.5253125 17.13703125 0.8553125 16.45703125 1.1953125 C16.45925186 2.28668015 16.46147247 3.37804779 16.46376038 4.50248718 C16.48403194 14.78751343 16.49902278 25.07253563 16.50884342 35.35757732 C16.51406203 40.64521301 16.52114117 45.93283258 16.5324707 51.22045898 C16.54333584 56.3232775 16.5493158 61.4260805 16.55190849 66.52890968 C16.55375619 68.47574927 16.55736424 70.42258802 16.56276131 72.36942101 C16.57001981 75.09615286 16.57102015 77.82282059 16.57055664 80.54956055 C16.57415192 81.35444916 16.57774719 82.15933777 16.58145142 82.98861694 C16.57434892 86.84980093 16.40095246 90.44256602 15.45703125 94.1953125 C14.79703125 92.8753125 14.13703125 91.5553125 13.45703125 90.1953125 C12.79703125 90.8553125 12.13703125 91.5153125 11.45703125 92.1953125 C11.12703125 91.5353125 10.79703125 90.8753125 10.45703125 90.1953125 C8.10946907 89.7228887 8.10946907 89.7228887 5.33203125 89.5703125 C4.33816406 89.49296875 3.34429687 89.415625 2.3203125 89.3359375 C-0.72121075 89.14794427 -0.72121075 89.14794427 -4.48046875 89.3203125 C-7.91701871 89.18004515 -9.06341278 88.4841334 -11.54296875 86.1953125 C-11.87296875 86.1953125 -12.20296875 86.1953125 -12.54296875 86.1953125 C-12.66671875 87.3296875 -12.79046875 88.4640625 -12.91796875 89.6328125 C-13.22734375 91.39625 -13.22734375 91.39625 -13.54296875 93.1953125 C-14.53296875 93.6903125 -14.53296875 93.6903125 -15.54296875 94.1953125 C-15.54296875 93.2053125 -15.54296875 92.2153125 -15.54296875 91.1953125 C-19.17296875 91.1953125 -22.80296875 91.1953125 -26.54296875 91.1953125 C-26.87296875 90.2053125 -27.20296875 89.2153125 -27.54296875 88.1953125 C-28.20296875 88.1953125 -28.86296875 88.1953125 -29.54296875 88.1953125 C-29.54296875 87.5353125 -29.54296875 86.8753125 -29.54296875 86.1953125 C-28.22296875 86.1953125 -26.90296875 86.1953125 -25.54296875 86.1953125 C-25.55457031 85.41285156 -25.56617187 84.63039063 -25.578125 83.82421875 C-25.58714844 82.81230469 -25.59617187 81.80039063 -25.60546875 80.7578125 C-25.61707031 79.74847656 -25.62867187 78.73914063 -25.640625 77.69921875 C-25.54296875 75.1953125 -25.54296875 75.1953125 -24.54296875 74.1953125 C-21.90296875 74.1953125 -19.26296875 74.1953125 -16.54296875 74.1953125 C-16.54296875 57.0353125 -16.54296875 39.8753125 -16.54296875 22.1953125 C-16.21296875 22.1953125 -15.88296875 22.1953125 -15.54296875 22.1953125 C-15.41341797 20.65810547 -15.41341797 20.65810547 -15.28125 19.08984375 C-15.14047789 17.72904669 -14.99848606 16.36837542 -14.85546875 15.0078125 C-14.80197266 14.33427734 -14.74847656 13.66074219 -14.69335938 12.96679688 C-14.11097059 7.77594031 -12.53410514 5.46840336 -8.54296875 2.1953125 C-5.14399202 -0.07067198 -3.97977702 -0.04211404 0 0 Z M-12.54296875 73.1953125 C-12.54296875 73.8553125 -12.54296875 74.5153125 -12.54296875 75.1953125 C-11.55296875 74.8653125 -10.56296875 74.5353125 -9.54296875 74.1953125 C-10.53296875 73.8653125 -11.52296875 73.5353125 -12.54296875 73.1953125 Z M-9.54296875 75.1953125 C-8.54296875 77.1953125 -8.54296875 77.1953125 -8.54296875 77.1953125 Z M1.45703125 76.1953125 C2.45703125 78.1953125 2.45703125 78.1953125 2.45703125 78.1953125 Z M10.45703125 76.1953125 C11.45703125 78.1953125 11.45703125 78.1953125 11.45703125 78.1953125 Z M3.45703125 80.1953125 C4.45703125 82.1953125 4.45703125 82.1953125 4.45703125 82.1953125 Z M-6.54296875 81.1953125 C-5.54296875 84.1953125 -5.54296875 84.1953125 -5.54296875 84.1953125 Z M3.45703125 83.1953125 C4.45703125 87.1953125 4.45703125 87.1953125 4.45703125 87.1953125 Z M10.45703125 83.1953125 C11.45703125 85.1953125 11.45703125 85.1953125 11.45703125 85.1953125 Z M8.45703125 85.1953125 C9.45703125 87.1953125 9.45703125 87.1953125 9.45703125 87.1953125 Z M1.45703125 86.1953125 C2.45703125 88.1953125 2.45703125 88.1953125 2.45703125 88.1953125 Z " fill="#F58935" transform="translate(101.54296875,41.8046875)"/>
<path d="M0 0 C0.33 0.99 0.66 1.98 1 3 C1.99 3.33 2.98 3.66 4 4 C7.54760992 9.04852181 8.12695311 13.03540404 8.09765625 19.11376953 C8.09435303 20.34829865 8.0910498 21.58282776 8.08764648 22.85476685 C8.08352753 23.51119297 8.07940857 24.16761909 8.07516479 24.84393692 C8.06237386 26.90311974 8.05587904 28.96223799 8.05102539 31.02145386 C8.03961427 35.38933164 8.020359 39.75715597 8 44.125 C7.97641623 49.19356782 7.95602995 54.26210549 7.94406128 59.33071518 C7.93756795 61.36155999 7.92506264 63.39231215 7.91235352 65.42312622 C7.90905029 66.65135101 7.90574707 67.87957581 7.90234375 69.14501953 C7.89448853 70.77239548 7.89448853 70.77239548 7.88647461 72.43264771 C7.82491718 74.98922191 7.82491718 74.98922191 9 77 C7.02 77 5.04 77 3 77 C3 76.67 3 76.34 3 76 C-5.91 75.67 -14.82 75.34 -24 75 C-23.67 51.24 -23.34 27.48 -23 3 C-19.04 2.34 -15.08 1.68 -11 1 C-7.1273408 0.0318352 -3.96388638 -0.07622858 0 0 Z " fill="#F58835" transform="translate(24,40)"/>
<path d="M0 0 C1.19367187 -0.01224609 2.38734375 -0.02449219 3.6171875 -0.03710938 C5.34582031 -0.04000977 5.34582031 -0.04000977 7.109375 -0.04296875 C8.16608398 -0.04707764 9.22279297 -0.05118652 10.31152344 -0.05541992 C13.25 0.1875 13.25 0.1875 15.94628906 1.3269043 C16.70651367 1.61090088 17.46673828 1.89489746 18.25 2.1875 C19.24 1.5275 20.23 0.8675 21.25 0.1875 C24.4375 0.0625 24.4375 0.0625 27.25 0.1875 C27.745 2.1675 27.745 2.1675 28.25 4.1875 C30.23 4.1875 32.21 4.1875 34.25 4.1875 C34.58 2.8675 34.91 1.5475 35.25 0.1875 C43.91666667 0.1875 52.58333333 0.1875 61.25 0.1875 C60.74396008 2.35624252 60.25016187 4.18717627 59.25 6.1875 C58.59 6.1875 57.93 6.1875 57.25 6.1875 C57.25 9.1575 57.25 12.1275 57.25 15.1875 C54.94 15.1875 52.63 15.1875 50.25 15.1875 C50.25 11.5575 50.25 7.9275 50.25 4.1875 C48.27 4.1875 46.29 4.1875 44.25 4.1875 C44.745 5.5178125 44.745 5.5178125 45.25 6.875 C46.17135807 9.92699862 46.59949702 12.0420268 46.25 15.1875 C44.25 17.1875 44.25 17.1875 41.75 17.375 C39.25 17.1875 39.25 17.1875 37.25 16.1875 C37.25 16.5175 37.25 16.8475 37.25 17.1875 C34.45807795 17.24130578 31.6671859 17.28107669 28.875 17.3125 C28.0809375 17.32925781 27.286875 17.34601563 26.46875 17.36328125 C24.39507985 17.38085473 22.32116759 17.29085168 20.25 17.1875 C19.59 16.5275 18.93 15.8675 18.25 15.1875 C18.25 14.8575 18.25 14.5275 18.25 14.1875 C16.93 14.5175 15.61 14.8475 14.25 15.1875 C14.58 15.8475 14.91 16.5075 15.25 17.1875 C5.38124027 18.0859165 -3.87068829 18.17695341 -13.75 17.1875 C-13.77684679 14.54159986 -13.79676357 11.89596904 -13.8125 9.25 C-13.82087891 8.49525391 -13.82925781 7.74050781 -13.83789062 6.96289062 C-13.84652441 5.03755687 -13.80224333 3.11214419 -13.75 1.1875 C-11.12472481 -1.43777519 -3.53260023 0.00188305 0 0 Z M-0.75 3.1875 C-0.75 6.1575 -0.75 9.1275 -0.75 12.1875 C-0.42 12.1875 -0.09 12.1875 0.25 12.1875 C0.25 9.2175 0.25 6.2475 0.25 3.1875 C-0.08 3.1875 -0.41 3.1875 -0.75 3.1875 Z M1.25 4.1875 C1.25 6.8275 1.25 9.4675 1.25 12.1875 C1.91 11.8575 2.57 11.5275 3.25 11.1875 C2.92 8.8775 2.59 6.5675 2.25 4.1875 C1.92 4.1875 1.59 4.1875 1.25 4.1875 Z M21.25 5.1875 C22.25 8.1875 22.25 8.1875 22.25 8.1875 Z M12.25 6.1875 C12.25 6.8475 12.25 7.5075 12.25 8.1875 C12.91 8.1875 13.57 8.1875 14.25 8.1875 C14.25 7.5275 14.25 6.8675 14.25 6.1875 C13.59 6.1875 12.93 6.1875 12.25 6.1875 Z M37.25 6.1875 C38.25 8.1875 38.25 8.1875 38.25 8.1875 Z M7.25 9.1875 C8.25 11.1875 8.25 11.1875 8.25 11.1875 Z M13.25 9.1875 C12.92 9.8475 12.59 10.5075 12.25 11.1875 C13.57 10.5275 14.89 9.8675 16.25 9.1875 C15.26 9.1875 14.27 9.1875 13.25 9.1875 Z M14.25 11.1875 C15.25 13.1875 15.25 13.1875 15.25 13.1875 Z M-8.75 12.1875 C-6.77 13.1775 -6.77 13.1775 -4.75 14.1875 C-4.75 13.5275 -4.75 12.8675 -4.75 12.1875 C-6.07 12.1875 -7.39 12.1875 -8.75 12.1875 Z M29.25 12.1875 C28.92 13.1775 28.59 14.1675 28.25 15.1875 C29.24 15.1875 30.23 15.1875 31.25 15.1875 C31.25 14.1975 31.25 13.2075 31.25 12.1875 C30.59 12.1875 29.93 12.1875 29.25 12.1875 Z M36.25 12.1875 C40.25 13.1875 40.25 13.1875 40.25 13.1875 Z M-0.75 15.1875 C0.735 16.1775 0.735 16.1775 2.25 17.1875 C2.25 16.5275 2.25 15.8675 2.25 15.1875 C1.26 15.1875 0.27 15.1875 -0.75 15.1875 Z " fill="#050302" transform="translate(13.75,115.8125)"/>
<path d="M0 0 C0.33 0 0.66 0 1 0 C1.33 17.16 1.66 34.32 2 52 C7.55810604 53.40723561 7.55810604 53.40723561 11 52 C14.7659092 51.71755681 15.73718826 51.82479218 19 54 C19.66 53.34 20.32 52.68 21 52 C21.721875 52.144375 22.44375 52.28875 23.1875 52.4375 C26.6744319 53.13488638 29.51088378 52.56170261 33 52 C33.02712351 54.39591038 33.0468982 56.79150957 33.0625 59.1875 C33.07087891 59.86103516 33.07925781 60.53457031 33.08789062 61.22851562 C33.10606538 64.95434131 32.89299392 68.3788042 32 72 C31.34 70.68 30.68 69.36 30 68 C29.34 68.66 28.68 69.32 28 70 C27.67 69.34 27.34 68.68 27 68 C24.65243782 67.5275762 24.65243782 67.5275762 21.875 67.375 C20.88113281 67.29765625 19.88726562 67.2203125 18.86328125 67.140625 C15.821758 66.95263177 15.821758 66.95263177 12.0625 67.125 C8.62595004 66.98473265 7.47955597 66.2888209 5 64 C4.67 64 4.34 64 4 64 C3.87625 65.134375 3.7525 66.26875 3.625 67.4375 C3.315625 69.2009375 3.315625 69.2009375 3 71 C2.01 71.495 2.01 71.495 1 72 C1 71.01 1 70.02 1 69 C-2.63 69 -6.26 69 -10 69 C-10.33 68.01 -10.66 67.02 -11 66 C-11.66 66 -12.32 66 -13 66 C-13 65.34 -13 64.68 -13 64 C-11.68 64 -10.36 64 -9 64 C-9.01160156 63.21753906 -9.02320312 62.43507812 -9.03515625 61.62890625 C-9.04417969 60.61699219 -9.05320312 59.60507813 -9.0625 58.5625 C-9.07410156 57.55316406 -9.08570312 56.54382813 -9.09765625 55.50390625 C-9 53 -9 53 -8 52 C-5.36 52 -2.72 52 0 52 C0 34.84 0 17.68 0 0 Z M27 54 C28 56 28 56 28 56 Z M20 58 C21 60 21 60 21 60 Z M10 59 C11 62 11 62 11 62 Z M20 61 C21 65 21 65 21 65 Z M27 61 C28 63 28 63 28 63 Z M25 63 C26 65 26 65 26 65 Z M18 64 C19 66 19 66 19 66 Z " fill="#120D09" transform="translate(85,64)"/>
<path d="M0 0 C0.33 0 0.66 0 1 0 C1 25.08 1 50.16 1 76 C0.67 76 0.34 76 0 76 C0 50.92 0 25.84 0 0 Z " fill="#E98232" transform="translate(119,44)"/>
<path d="M0 0 C7.92 0 15.84 0 24 0 C24 0.33 24 0.66 24 1 C16.08 1 8.16 1 0 1 C0 0.67 0 0.34 0 0 Z " fill="#E43525" transform="translate(96,40)"/>
<path d="M0 0 C1.98 0 3.96 0 6 0 C6 0.33 6 0.66 6 1 C4.02 1 2.04 1 0 1 C0 0.67 0 0.34 0 0 Z " fill="#000000" transform="translate(105,132)"/>
<path d="M0 0 C1.98 0 3.96 0 6 0 C6 0.33 6 0.66 6 1 C4.02 1 2.04 1 0 1 C0 0.67 0 0.34 0 0 Z " fill="#000000" transform="translate(97,132)"/>
<path d="M0 0 C1.65 0 3.3 0 5 0 C5 0.33 5 0.66 5 1 C3.35 1 1.7 1 0 1 C0 0.67 0 0.34 0 0 Z " fill="#000000" transform="translate(64,132)"/>
<path d="M0 0 C3 1 3 1 3 1 Z " fill="#ED3726" transform="translate(13,40)"/>
<path d="M0 0 C0.66 0.66 1.32 1.32 2 2 C1.34 2 0.68 2 0 2 C0 1.34 0 0.68 0 0 Z " fill="#F5792F" transform="translate(36,36)"/>
<path d="" fill="#F48231" transform="translate(0,0)"/>
<path d="M0 0 C2 1 2 1 2 1 Z " fill="#F5702D" transform="translate(30,32)"/>
<path d="" fill="#EA4623" transform="translate(0,0)"/>
<path d="" fill="#EF3828" transform="translate(0,0)"/>
<path d="" fill="#F27D30" transform="translate(0,0)"/>
<path d="" fill="#F3742F" transform="translate(0,0)"/>
<path d="" fill="#D67E37" transform="translate(0,0)"/>
</svg>
